:SAMPLES-PER-SECOND 30
:FULLY-SPECIFIED
:DEGREES
496
root  -15.6692 41.6342 -1.62178 28.1848 -45.073 -27.0173
RightUpLeg  -4.20331 36.8417 -24.3896
RightLeg  113.695 -0.21478 1.26768
RightFoot  22.754 0.543086 -1.22462
RightToes  -5.28226e-011 1.30204e-014 -6.03759e-014
Spine  7.72432 -6.32524 -8.38898
Spine1  -16.1396 -9.34721 27.1645
HEad  7.35247 -12.3018 1.63033
LeftShoulder1  0.84667 9.74446 25.053
LeftArm  -66.8195 -15.3548 1.41957
LeftForeArm  -21.0413 -26.0436 -6.60984
LeftHand  -0.514983 -2.63348 7.78094
RightShoulder  0.262979 -12.0763 -13.1232
RightArm  -64.6127 -9.0855 -14.1257
RightForeArm  -40.9294 32.5992 9.57237
RightHand  -0.569851 -0.937701 -15.3709
LeftUpLeg  -13.1712 3.35049 11.7334
LeftLeg  12.3998 -1.38944 1.32989
LeftFoot  2.02629 0.04441 -0.482614
LeftToes  -2.42178e-010 -1.66495e-011 -2.88221e-011
497
root  -15.7616 41.7106 -1.81644 27.0452 -40.4779 -26.1792
RightUpLeg  -2.76121 41.1979 -25.8456
RightLeg  116.499 -0.718819 2.0673
RightFoot  23.9344 1.7797 -5.05246
RightToes  -5.28226e-011 1.30204e-014 -6.03759e-014
Spine  8.54841 -7.54091 -8.5172
Spine1  -17.6665 -10.3336 29.3192
HEad  9.00043 -13.8556 1.26009
LeftShoulder1  0.884235 8.96369 27.9429
LeftArm  -74.7999 -20.5135 2.72874
LeftForeArm  -25.0981 -42.331 -11.7631
LeftHand  -0.451485 -7.41135 4.3478
RightShoulder  0.403407 -12.2557 -14.8427
RightArm  -66.2142 -7.8076 -19.3893
RightForeArm  -34.3403 49.6633 15.5004
RightHand  -0.874238 3.39486 -11.676
LeftUpLeg  -13.2517 5.16096 13.0875
LeftLeg  10.6249 -6.8529 0.341173
LeftFoot  2.15578 0.194956 -1.77468
LeftToes  -2.42178e-010 -1.66495e-011 -2.88221e-011
498
root  -15.8184 41.6161 -2.12582 25.4205 -35.5993 -25.4043
RightUpLeg  -2.40595 39.3532 -26.8286
RightLeg  119.063 -2.35206 4.60106
RightFoot  27.8626 1.65176 -4.12077
RightToes  -5.28226e-011 1.30204e-014 -6.03759e-014
Spine  10.6173 -8.15309 -9.25835
Spine1  -19.1159 -10.9024 32.376
HEad  8.64741 -16.0945 1.21379
LeftShoulder1  0.989438 8.88018 30.3718
LeftArm  -80.7654 -25.9342 4.20737
LeftForeArm  -23.1812 -59.5883 -21.9034
LeftHand  -0.425182 -8.65218 3.87695
RightShoulder  0.502092 -12.3511 -16.026
RightArm  -69.2788 -7.6063 -26.4391
RightForeArm  -23.669 65.2385 28.3253
RightHand  -0.693178 4.7912 -8.14832
LeftUpLeg  -13.7052 6.44904 14.4002
LeftLeg  10.1503 -11.0019 -0.501775
LeftFoot  0.900512 0.347682 -3.30086
LeftToes  -2.42178e-010 -1.66495e-011 -2.88221e-011
499
root  -15.889 41.4092 -2.53678 23.4757 -31.204 -24.783
RightUpLeg  -3.02512 33.1231 -26.8835
RightLeg  121.3 -4.19338 7.0389
RightFoot  32.5378 0.356554 -0.310267
RightToes  -5.28226e-011 1.30204e-014 -6.03759e-014
Spine  12.7983 -8.08538 -10.2007
Spine1  -19.6525 -11.1176 35.1671
HEad  7.1033 -18.4215 1.31452
LeftShoulder1  1.17394 9.38727 32.1057
LeftArm  -85.9262 -31.2234 6.12699
LeftForeArm  -4.01385 -72.3855 -41.6091
LeftHand  -0.804076 -7.89454 7.38873
RightShoulder  0.7403 -13.4404 -17.9959
RightArm  -73.2709 -7.14733 -31.8361
RightForeArm  1.71727 75.3011 54.8523
RightHand  -0.704569 5.4707 -7.81438
LeftUpLeg  -14.2678 6.73749 15.3591
LeftLeg  10.8334 -12.7778 -1.05404
LeftFoot  -1.03646 0.307737 -3.31198
LeftToes  -2.42178e-010 -1.66495e-011 -2.88221e-011
500
root  -15.9757 41.1432 -2.96573 21.4066 -28.1547 -24.2025
RightUpLeg  -4.77173 25.0817 -25.8218
RightLeg  122.734 -5.0158 7.85327
RightFoot  35.3088 -1.35055 3.74316
RightToes  -5.28226e-011 1.30204e-014 -6.03759e-014
Spine  14.4568 -7.56482 -10.9044
Spine1  -19.576 -10.8943 36.1544
HEad  6.56709 -20.4898 1.76666
LeftShoulder1  1.23741 9.58035 32.5472
LeftArm  -89.6338 -35.8049 7.96077
LeftForeArm  25.1327 -77.3494 -67.208
LeftHand  -1.11108 -6.96162 10.7575
RightShoulder  1.07228 -14.9826 -20.1645
RightArm  -76.5535 -6.07766 -32.646
RightForeArm  40.193 78.011 91.1263
RightHand  -0.861566 6.68129 -8.60829
LeftUpLeg  -14.779 5.27485 15.7976
LeftLeg  12.5649 -11.7373 -1.20061
LeftFoot  -3.05277 0.124007 -1.4355
LeftToes  -2.42178e-010 -1.66495e-011 -2.88221e-011
501
root  -16.0624 40.8479 -3.3529 19.5527 -27.2091 -23.6143
RightUpLeg  -8.34544 17.426 -24.1939
RightLeg  122.706 -4.70037 7.40627
RightFoot  35.4379 -2.73781 6.9317
RightToes  -5.28226e-011 1.30204e-014 -6.03759e-014
Spine  15.4629 -6.78144 -11.273
Spine1  -19.0668 -10.2567 34.693
HEad  7.53326 -22.2785 2.85853
LeftShoulder1  1.10637 9.17918 31.5852
LeftArm  -91.0606 -39.2007 8.87364
LeftForeArm  32.0101 -77.6488 -71.4821
LeftHand  -1.14422 -6.40028 11.5583
RightShoulder  1.18173 -15.5873 -20.638
RightArm  -77.511 -5.06978 -29.8342
RightForeArm  56.7921 77.521 106.11
RightHand  -0.852715 6.36409 -8.72284
LeftUpLeg  -15.1516 2.26674 15.849
LeftLeg  15.0706 -8.24327 -0.899042
LeftFoot  -5.01501 0.00140852 0.503568
LeftToes  -2.42178e-010 -1.66495e-011 -2.88221e-011
502
root  -16.151 40.5379 -3.67275 18.2826 -28.5378 -23.0693
RightUpLeg  -13.6232 11.5871 -22.0989
RightLeg  120.517 -3.6766 6.42654
RightFoot  33.676 -3.49534 9.01236
RightToes  -5.28226e-011 1.30204e-014 -6.03759e-014
Spine  15.6694 -5.87639 -11.453
Spine1  -17.9106 -9.47518 31.7743
HEad  8.61704 -23.5031 4.05127
LeftShoulder1  0.943198 8.84401 29.6003
LeftArm  -90.3995 -40.9788 8.4426
LeftForeArm  19.3818 -76.2036 -57.6651
LeftHand  -1.08712 -6.13548 11.2449
RightShoulder  1.00683 -15.0605 -19.4346
RightArm  -76.9378 -4.92272 -25.4853
RightForeArm  47.4819 77.7831 98.1706
RightHand  -0.657501 4.65046 -7.87536
LeftUpLeg  -15.5077 -0.0917445 15.5694
LeftLeg  18.1389 -4.1705 -0.402345
LeftFoot  -7.07324 0.00592997 0.922145
LeftToes  -2.42178e-010 -1.66495e-011 -2.88221e-011
503
root  -16.2364 40.2817 -3.85328 17.5034 -31.1389 -22.4071
RightUpLeg  -19.3231 7.67033 -19.1793
RightLeg  115.683 -2.30909 5.14736
RightFoot  30.532 -3.5007 9.69513
RightToes  -5.28226e-011 1.30204e-014 -6.03759e-014
Spine  15.2216 -5.24756 -11.5903
Spine1  -16.5589 -8.81789 29.0368
HEad  9.04447 -23.673 4.5183
LeftShoulder1  0.82859 8.88307 27.0892
LeftArm  -88.691 -41.8352 6.97632
LeftForeArm  6.41004 -73.1195 -43.0007
LeftHand  -1.14996 -5.49026 12.5357
RightShoulder  0.833229 -14.2311 -18.3932
RightArm  -75.7019 -5.65247 -19.854
RightForeArm  25.7161 77.6113 78.0899
RightHand  -0.623417 3.54856 -8.33062
LeftUpLeg  -15.5802 0.187454 14.6803
LeftLeg  20.7322 -1.99331 -0.0485325
LeftFoot  -8.86353 0.0496935 0.163694
LeftToes  -2.42178e-010 -1.66495e-011 -2.88221e-011
504
root  -16.3041 40.1904 -3.87082 16.8273 -33.4392 -21.3859
RightUpLeg  -23.6753 4.5886 -15.4811
RightLeg  108.132 -1.00481 3.70913
RightFoot  25.0323 -2.86969 9.24106
RightToes  -5.28226e-011 1.30204e-014 -6.03759e-014
Spine  14.7159 -5.29761 -11.7967
Spine1  -15.917 -8.52988 27.1944
HEad  9.3475 -22.771 4.34033
LeftShoulder1  0.676877 8.65288 24.5466
LeftArm  -87.4025 -43.6075 4.57079
LeftForeArm  -2.00098 -68.9345 -32.33
LeftHand  -1.26302 -3.94664 15.914
RightShoulder  0.737391 -13.5313 -17.9259
RightArm  -73.6817 -6.9093 -12.7728
RightForeArm  9.53792 76.238 60.9981
RightHand  -0.953781 2.92278 -13.4572
LeftUpLeg  -14.9326 2.18676 13.2463
LeftLeg  21.2684 -2.08705 -0.0278089
LeftFoot  -9.52529 0.0680361 -0.645333
LeftToes  -2.42178e-010 -1.66495e-011 -2.88221e-011
505
root  -16.3671 40.2046 -3.83485 16.0493 -34.7271 -20.0537
RightUpLeg  -25.7811 1.33602 -11.5866
RightLeg  98.3384 -0.149981 2.60463
RightFoot  17.6091 -2.29607 9.401
RightToes  -5.28226e-011 1.30204e-014 -6.03759e-014
Spine  14.3941 -6.02038 -12.3194
Spine1  -15.9215 -8.86334 26.3397
HEad  9.90429 -21.1152 4.03888
LeftShoulder1  0.444117 7.53434 22.1751
LeftArm  -87.3034 -47.3553 0.505085
LeftForeArm  -6.2572 -65.7065 -27.0871
LeftHand  -1.15407 -0.961721 21.2796
RightShoulder  0.560637 -12.7864 -16.4343
RightArm  -72.0494 -7.76198 -5.30195
RightForeArm  4.56916 75.1139 53.2873
RightHand  -1.30921 1.49129 -22.1529
LeftUpLeg  -14.0317 4.1532 11.7121
LeftLeg  20.3629 -3.13012 -0.132784
LeftFoot  -9.29828 0.0760019 -1.1286
LeftToes  -2.42178e-010 -1.66495e-011 -2.88221e-011
